# xmcd
#
# Track frame offsets: 
#        150
#        93169
#        101696
#        118573
#        130438
#        134034
#        146750
#        168666
#        202110
#        235365
#        275039
#        292063
#        324421
#
# Disc length: 4754 seconds
#
# Revision: 3
# Processed by: cddbd v1.5.2PL0 Copyright (c) Steve Scherf et al.
# Submitted via: ExactAudioCopyFreeDBPlugin 1.0
#
DISCID=d712900d
DTITLE=Son House - The Legendary 1969 Rochester Sessions at Home
DYEAR=1992
DGENRE=Blues
TTITLE0=Son's Blues
TTITLE1=Yonder Comes My Mother
TTITLE2=Shetland Pony Blues
TTITLE3=I'm So Sorry, Baby
TTITLE4=Plantation Song
TTITLE5=Mister Suzie-Q
TTITLE6=Evening Train
TTITLE7=Sundown
TTITLE8=Preachin' the Blues
TTITLE9=Empire State Express
TTITLE10=Never Mind People Grinnin' in Your Face
TTITLE11=Sun Goin' Down
TTITLE12=A Spoken Message
EXTD=
EXTT0=
EXTT1=
EXTT2=
EXTT3=
EXTT4=
EXTT5=
EXTT6=
EXTT7=
EXTT8=
EXTT9=
EXTT10=
EXTT11=
EXTT12=
PLAYORDER=
